<?xml version="1.0" encoding="UTF-8" standalone="no"?><!-- Generator: Gravit.io --><svg xmlns="http://www.w3.org/2000/svg" xmlns:xlink="http://www.w3.org/1999/xlink" style="isolation:isolate" viewBox="0 0 496 496" width="496pt" height="496pt"><defs><clipPath id="_clipPath_qKdgSpULVS4qMSiuElQc8kS8IAdBPqei"><rect width="496" height="496"/></clipPath></defs><g clip-path="url(#_clipPath_qKdgSpULVS4qMSiuElQc8kS8IAdBPqei)"><g><path d=" M 72 448 L 408 448 C 425.672 448 440 433.672 440 416 L 440 384 L 136 384 L 136 416 C 136 433.672 121.672 448 104 448 L 72 448 L 72 448 Z " fill="rgb(216,31,63)"/><path d=" M 72 104 L 8 104 L 8 40 C 8 22.328 22.328 8 40 8 L 40 8 C 57.672 8 72 22.328 72 40 L 72 104 L 72 104 Z " fill="rgb(216,31,63)"/></g><path d=" M 376 155.672 C 343.544 165.864 320 196.176 320 232 C 320 267.816 343.544 298.128 376 308.328 L 376 155.672 L 376 155.672 Z " fill="rgb(182,193,206)"/><circle vector-effect="non-scaling-stroke" cx="408" cy="208" r="80" fill="rgb(216,31,63)"/><path d=" M 408 272 C 366.52 272 332.416 240.424 328.4 200 C 328.144 202.632 328 205.296 328 208 C 328 252.184 363.816 288 408 288 C 452.184 288 488 252.184 488 208 C 488 205.296 487.856 202.632 487.6 200 C 483.584 240.424 449.48 272 408 272 Z " fill="rgb(172,20,45)"/><g><rect x="8" y="424" width="96" height="64" transform="matrix(1,0,0,1,0,0)" fill="rgb(57,180,189)"/><rect x="112" y="40" width="224" height="88" transform="matrix(1,0,0,1,0,0)" fill="rgb(57,180,189)"/></g><rect x="8" y="80" width="64" height="24" transform="matrix(1,0,0,1,0,0)" fill="rgb(216,31,63)"/><rect x="8" y="464" width="96" height="24" transform="matrix(1,0,0,1,0,0)" fill="rgb(57,180,189)"/><path d=" M 40 424 L 32.248 361.976 C 32.08 360.664 32 359.336 32 358.008 L 32 289.992 C 32 288.664 32.08 287.336 32.248 286.024 L 38.912 232.736 C 39.624 227.024 41.872 221.608 45.408 218.84 L 91.16 160 C 94.216 154.296 98.912 152 103.88 152 L 103.88 152 C 112.784 152 120 159.216 120 168.12 L 120 170.84 C 120 174.2 118.952 177.472 117 180.208 L 85.96 223.664 C 82.08 229.08 80 235.584 80 242.256 L 80 288.448 C 80 293.416 81.16 298.312 83.376 302.76 L 96 328 L 96 328 L 131.032 292.968 C 134.216 289.784 138.528 288 143.032 288 L 143.032 288 C 152.4 288 160 295.6 160 304.968 L 160 304.968 C 160 309.472 158.216 313.784 155.032 316.968 L 96 376 L 96 424 L 40 424 L 40 424 Z " fill="rgb(249,224,166)"/><path d=" M 104 136 L 344 136 L 344 32 L 104 32 L 104 136 L 104 136 Z  M 120 48 L 328 48 L 328 120 L 120 120 L 120 48 L 120 48 Z " fill="rgb(0,0,0)"/><rect x="144" y="248" width="160" height="16" transform="matrix(1,0,0,1,0,0)" fill="rgb(0,0,0)"/><rect x="160" y="184" width="48" height="16" transform="matrix(1,0,0,1,0,0)" fill="rgb(0,0,0)"/><rect x="240" y="184" width="48" height="16" transform="matrix(1,0,0,1,0,0)" fill="rgb(0,0,0)"/><rect x="160" y="216" width="48" height="16" transform="matrix(1,0,0,1,0,0)" fill="rgb(0,0,0)"/><rect x="240" y="216" width="48" height="16" transform="matrix(1,0,0,1,0,0)" fill="rgb(0,0,0)"/><rect x="216" y="312" width="128" height="16" transform="matrix(1,0,0,1,0,0)" fill="rgb(0,0,0)"/><rect x="296" y="344" width="48" height="16" transform="matrix(1,0,0,1,0,0)" fill="rgb(0,0,0)"/><rect x="216" y="344" width="48" height="16" transform="matrix(1,0,0,1,0,0)" fill="rgb(0,0,0)"/><path d=" M 408 184 C 412.416 184 416 187.592 416 192 L 432 192 C 432 181.584 425.288 172.784 416 169.472 L 416 152 L 400 152 L 400 169.472 C 390.712 172.784 384 181.584 384 192 C 384 205.232 394.768 216 408 216 C 412.416 216 416 219.592 416 224 C 416 228.408 412.416 232 408 232 C 403.584 232 400 228.408 400 224 L 384 224 C 384 234.416 390.712 243.216 400 246.528 L 400 264 L 416 264 L 416 246.528 C 425.288 243.216 432 234.416 432 224 C 432 210.768 421.232 200 408 200 C 403.584 200 400 196.408 400 192 C 400 187.592 403.584 184 408 184 Z " fill="rgb(255,255,255)"/><rect x="448" y="200" width="16" height="16" transform="matrix(1,0,0,1,0,0)" fill="rgb(255,255,255)"/><rect x="352" y="200" width="16" height="16" transform="matrix(1,0,0,1,0,0)" fill="rgb(255,255,255)"/><path d=" M 481.608 256.248 C 491.024 241.904 496 225.216 496 208 C 496 159.48 456.52 120 408 120 C 399.672 120 391.64 121.24 384 123.408 L 384 40 C 384 17.944 366.056 0 344 0 L 40 0 C 17.944 0 0 17.944 0 40 L 0 112 L 64 112 L 64 171.608 L 31.6 213.256 C 27.072 217.272 23.952 223.928 22.968 231.736 L 16.312 285.032 C 16.112 286.68 16 288.336 16 289.992 L 16 358.008 C 16 359.672 16.112 361.32 16.312 362.968 L 22.936 416 L 0 416 L 0 496 L 112 496 L 112 456 L 408 456 C 430.056 456 448 438.056 448 416 L 448 376 L 384 376 L 384 292.592 C 391.64 294.76 399.672 296 408 296 C 431.56 296 453.696 286.816 470.32 270.128 L 458.992 258.832 C 445.384 272.488 427.272 280 408 280 C 368.296 280 336 247.696 336 208 C 336 168.304 368.296 136 408 136 C 447.704 136 480 168.304 480 208 C 480 222.088 475.928 235.736 468.232 247.464 L 481.608 256.248 L 481.608 256.248 Z  M 16 96 L 16 40 C 16 26.768 26.768 16 40 16 C 53.232 16 64 26.768 64 40 L 64 96 L 16 96 L 16 96 Z  M 32.184 360.992 C 32.064 360 32 359 32 358.008 L 32 289.992 C 32 289 32.064 288 32.184 287.016 L 38.84 233.728 C 39.4 229.256 41.04 226.136 42.336 225.128 L 89.48 164.912 L 90.224 163.768 C 92.008 160.432 94.184 160 95.88 160 C 100.36 160 104 163.64 104 168.12 L 104 170.84 C 104 172.544 103.48 174.176 102.496 175.56 L 71.456 219.016 C 66.576 225.832 64 233.872 64 242.256 L 64 288.448 C 64 294.616 65.464 300.808 68.216 306.336 L 75.056 320 L 72 320 L 72 336 L 91.312 336 L 128.688 298.624 C 130.36 296.96 132.672 296 135.032 296 C 139.976 296 144 300.024 144 304.968 C 144 307.368 143.072 309.616 141.376 311.312 L 80 372.688 L 80 416 L 39.064 416 L 32.184 360.992 L 32.184 360.992 Z  M 96 480 L 16 480 L 16 432 L 96 432 L 96 480 L 96 480 Z  M 432 416 C 432 429.232 421.232 440 408 440 L 135.984 440 C 141.016 433.312 144 425 144 416 L 144 392 L 432 392 L 432 416 L 432 416 Z  M 320 208 C 320 242.112 339.552 271.688 368 286.288 L 368 376 L 128 376 L 128 416 C 128 426.416 121.288 435.216 112 438.528 L 112 416 L 96 416 L 96 379.312 L 152.688 322.624 C 157.408 317.912 160 311.64 160 304.968 C 160 291.2 148.8 280 135.032 280 C 128.456 280 122.024 282.664 117.376 287.312 L 90.192 314.496 L 82.528 299.184 C 80.872 295.864 80 292.152 80 288.448 L 80 242.256 C 80 237.224 81.544 232.408 84.472 228.304 L 115.512 184.848 C 118.448 180.744 120 175.896 120 170.832 L 120 168.112 C 120 154.824 109.176 144 95.88 144 C 89.672 144 84.144 146.44 80 150.832 L 80 40 C 80 30.96 76.872 22.704 71.792 16 L 344 16 C 357.232 16 368 26.768 368 40 L 368 129.712 C 339.552 144.312 320 173.888 320 208 Z " fill="rgb(0,0,0)"/></g></svg>