<?xml version="1.0" encoding="UTF-8" standalone="no"?><!-- Generator: Gravit.io --><svg xmlns="http://www.w3.org/2000/svg" xmlns:xlink="http://www.w3.org/1999/xlink" style="isolation:isolate" viewBox="0 0 512 512" width="512pt" height="512pt"><defs><clipPath id="_clipPath_mdB7iQF95ZyIVRXDFuAlAn1ZfuDp97GS"><rect width="512" height="512"/></clipPath></defs><g clip-path="url(#_clipPath_mdB7iQF95ZyIVRXDFuAlAn1ZfuDp97GS)"><path d=" M 304 304 L 312 296 L 336 320 L 328 328 L 248 328 L 152 328 L 48 328 C 30.32 328 16 313.68 16 296 L 16 264 L 296 264 L 280 280 C 280 286.64 282.72 292.64 287.04 296.96 C 291.36 301.28 297.36 304 304 304 Z " fill="rgb(57,180,189)"/><g><path d=" M 336 88 C 344.8 88 352 95.2 352 104 C 352 108.4 350.24 112.4 347.28 115.28 C 344.4 118.24 340.4 120 336 120 L 299.44 120 L 302 101.76 C 303.2 93.84 309.92 88 317.84 88 L 336 88 Z " fill="rgb(204,209,217)"/><path d=" M 288 200 C 296.8 200 304 207.2 304 216 C 304 220.4 302.24 224.4 299.28 227.28 C 296.4 230.24 292.4 232 288 232 C 279.2 232 272 224.8 272 216 C 272 207.2 279.2 200 288 200 Z " fill="rgb(204,209,217)"/><circle vector-effect="non-scaling-stroke" cx="192" cy="216" r="16" fill="rgb(204,209,217)"/></g><path d=" M 197.28 56 C 204.08 67.76 208 81.44 208 96 C 208 110.56 204.08 124.24 197.28 136 C 192.64 144 186.72 151.04 179.76 157.04 C 165.84 168.8 147.76 176 128 176 C 83.84 176 48 140.16 48 96 C 48 81.44 51.92 67.76 58.72 56 L 58.8 56 C 72.56 32.08 98.4 16 128 16 C 157.6 16 183.44 32.08 197.2 56 L 197.28 56 Z " fill="rgb(216,31,63)"/><path d=" M 192 288 L 208 288 L 208 304 L 192 304 L 192 288 Z " fill="rgb(0,0,0)"/><path d=" M 224 288 L 240 288 L 240 304 L 224 304 L 224 288 Z " fill="rgb(0,0,0)"/><path d=" M 160 288 L 176 288 L 176 304 L 160 304 L 160 288 Z " fill="rgb(0,0,0)"/><path d=" M 120 120 C 115.592 120 112 116.408 112 112 L 96 112 C 96 125.232 106.768 136 120 136 L 120 152 L 136 152 L 136 136 L 160 136 L 160 112 C 160 98.768 149.232 88 136 88 L 120 88 C 115.592 88 112 84.408 112 80 L 112 72 L 136 72 C 140.408 72 144 75.592 144 80 L 160 80 C 160 66.768 149.232 56 136 56 L 136 40 L 120 40 L 120 56 L 96 56 L 96 80 C 96 93.232 106.768 104 120 104 L 136 104 C 140.408 104 144 107.592 144 112 L 144 120 L 120 120 Z " fill="rgb(255,255,255)"/><path d=" M 504 320 C 504 302.352 489.648 288 472 288 L 468.688 288 L 464 292.688 L 395.312 224 L 400 219.312 L 400 216 C 400 207.96 396.92 200.688 392 195.056 L 392 88 C 392 65.944 374.056 48 352 48 L 201.664 48 C 185.936 23.952 158.816 8 128 8 C 97.184 8 70.064 23.952 54.336 48 L 48 48 C 25.944 48 8 65.944 8 88 L 8 296 C 8 318.056 25.944 336 48 336 L 140.896 336 L 130.232 368 L 112 368 C 94.352 368 80 382.352 80 400 L 80 432 L 212.696 432 L 192.976 451.72 C 187.184 457.504 184 465.184 184 473.376 C 184 490.256 197.736 504 214.632 504 C 222.808 504 230.496 500.816 236.288 495.032 L 368 363.312 L 380.688 376 L 376 380.688 L 376 384 C 376 389.992 377.76 395.544 380.632 400.344 C 360.176 402.08 344 419.096 344 440 L 344 464 L 504 464 L 504 440 C 504 417.944 486.056 400 464 400 L 427.312 400 L 504 323.312 L 504 320 Z  M 300.976 295.712 C 294.576 294.488 289.52 289.432 288.296 283.024 L 371.032 200.288 C 377.432 201.512 382.488 206.576 383.712 212.968 L 300.976 295.712 Z  M 128 24 C 167.696 24 200 56.304 200 96 C 200 135.696 167.696 168 128 168 C 88.304 168 56 135.696 56 96 C 56 56.304 88.304 24 128 24 Z  M 288 208 C 292.408 208 296 211.592 296 216 C 296 220.408 292.408 224 288 224 C 283.592 224 280 220.408 280 216 C 280 211.592 283.592 208 288 208 Z  M 281.064 192 L 198.032 192 L 188.752 159.512 C 193.624 154.856 197.96 149.664 201.664 144 L 287.92 144 L 281.064 192 Z  M 200 216 C 200 220.408 196.408 224 192 224 C 187.592 224 184 220.408 184 216 C 184 211.592 187.592 208 192 208 C 196.408 208 200 211.592 200 216 Z  M 46.04 64.2 C 42.192 74.08 40 84.776 40 96 C 40 144.52 79.48 184 128 184 C 145.36 184 161.512 178.88 175.16 170.176 L 182.032 194.24 C 173.776 198.032 168 206.328 168 216 C 168 229.232 178.768 240 192 240 C 205.232 240 216 229.232 216 216 C 216 213.184 215.424 210.512 214.528 208 L 265.48 208 C 264.576 210.512 264 213.184 264 216 C 264 229.232 274.768 240 288 240 C 301.232 240 312 229.232 312 216 C 312 205.944 305.768 197.336 296.968 193.776 L 306.368 128 L 336 128 C 349.232 128 360 117.232 360 104 C 360 90.768 349.232 80 336 80 L 317.872 80 C 306.008 80 295.792 88.856 294.12 100.608 L 290.208 128 L 209.888 128 C 213.784 118.064 216 107.296 216 96 C 216 84.704 213.784 73.936 209.888 64 L 352 64 C 365.232 64 376 74.768 376 88 L 376 185.136 C 373.424 184.464 370.776 184 368 184 L 364.688 184 L 292.688 256 L 24 256 L 24 88 C 24 75.44 33.736 65.216 46.04 64.2 Z  M 308.656 112 L 309.96 102.864 C 310.52 98.952 313.92 96 317.872 96 L 336 96 C 340.408 96 344 99.592 344 104 C 344 108.408 340.408 112 336 112 L 308.656 112 Z  M 24 296 L 24 272 L 276.688 272 L 272 276.688 L 272 280 C 272 297.648 286.352 312 304 312 L 307.312 312 L 312 307.312 L 324.688 320 L 48 320 C 34.768 320 24 309.232 24 296 Z  M 276.688 368 L 269.768 368 L 259.104 336 L 308.696 336 L 276.688 368 Z  M 157.768 336 L 242.232 336 L 252.896 368 L 147.104 368 L 157.768 336 Z  M 96 416 L 96 400 C 96 391.176 103.176 384 112 384 L 260.688 384 L 228.688 416 L 96 416 Z  M 224.976 483.72 C 222.208 486.48 218.536 488 214.632 488 C 206.56 488 200 481.44 200 473.376 C 200 469.528 201.56 465.76 204.288 463.032 L 336 331.312 L 356.688 352 L 224.976 483.72 Z  M 323.312 296 L 384 235.312 L 452.688 304 L 392 364.688 L 323.312 296 Z  M 464 416 C 477.232 416 488 426.768 488 440 L 488 448 L 360 448 L 360 440 C 360 426.768 370.768 416 384 416 L 408 416 L 411.312 416 L 464 416 Z  M 404.976 399.712 C 398.576 398.488 393.52 393.432 392.296 387.024 L 475.032 304.288 C 481.432 305.512 486.488 310.568 487.712 316.976 L 404.976 399.712 Z " fill="rgb(0,0,0)"/><path d=" M 376.326 299.734 L 387.638 288.422 L 398.95 299.734 L 387.638 311.046 L 376.326 299.734 Z " fill="rgb(0,0,0)"/><path d=" M 398.954 322.352 L 410.266 311.04 L 421.578 322.352 L 410.266 333.664 L 398.954 322.352 Z " fill="rgb(0,0,0)"/><path d=" M 354.276 277.667 L 365.588 266.355 L 376.329 277.096 L 365.017 288.408 L 354.276 277.667 Z " fill="rgb(0,0,0)"/><path d=" M 104 224 L 120 224 L 120 240 L 104 240 L 104 224 Z " fill="rgb(216,31,63)"/><path d=" M 72 224 L 88 224 L 88 240 L 72 240 L 72 224 Z " fill="rgb(216,31,63)"/><path d=" M 40 224 L 56 224 L 56 240 L 40 240 L 40 224 Z " fill="rgb(216,31,63)"/><path d=" M 40 192 L 120 192 L 120 208 L 40 208 L 40 192 Z " fill="rgb(216,31,63)"/></g></svg>