<?xml version="1.0" encoding="UTF-8" standalone="no"?><!-- Generator: Gravit.io --><svg xmlns="http://www.w3.org/2000/svg" xmlns:xlink="http://www.w3.org/1999/xlink" style="isolation:isolate" viewBox="0 0 512 512" width="512pt" height="512pt"><defs><clipPath id="_clipPath_oe8ShTZwYWEEztGYJ1KtOs5thA3AL8aU"><rect width="512" height="512"/></clipPath></defs><g clip-path="url(#_clipPath_oe8ShTZwYWEEztGYJ1KtOs5thA3AL8aU)"><path d=" M 464 120 L 464 168 L 443.52 175.04 C 441.2 183.12 438 190.88 434 198.16 L 443.52 217.52 L 421.04 240 L 409.52 251.44 L 390.16 242 C 382.88 246 375.12 249.2 367.04 251.52 L 360 272 L 312 272 L 304.96 251.52 C 296.88 249.2 289.12 246 281.84 242 L 262.48 251.44 L 250.96 240 L 228.48 217.52 L 238 198.16 C 234 190.88 230.8 183.12 228.48 175.04 L 208 168 L 208 120 L 228.48 112.96 C 230.8 104.88 234 97.12 238 89.84 L 228.48 70.48 L 250.96 48 L 262.48 36.48 L 281.84 46 C 289.12 42 296.88 38.8 304.96 36.48 L 312 16 L 360 16 L 367.04 36.48 C 375.12 38.8 382.88 42 390.16 46 L 409.52 36.48 L 443.52 70.48 L 434 89.84 C 438 97.12 441.2 104.88 443.52 112.96 L 464 120 Z " fill="rgb(216,31,63)"/><circle vector-effect="non-scaling-stroke" cx="336" cy="144" r="80" fill="rgb(255,255,255)"/><path d=" M 336 168 C 331.584 168 328 164.408 328 160 L 312 160 C 312 170.416 318.712 179.216 328 182.528 L 328 200 L 344 200 L 344 184 L 360 184 L 360 160 C 360 146.768 349.232 136 336 136 C 331.584 136 328 132.408 328 128 L 328 120 L 336 120 C 340.416 120 344 123.592 344 128 L 360 128 C 360 117.584 353.288 108.784 344 105.472 L 344 88 L 328 88 L 328 104 L 312 104 L 312 128 C 312 141.232 322.768 152 336 152 C 340.416 152 344 155.592 344 160 L 344 168 L 336 168 Z " fill="rgb(0,0,0)"/><path d=" M 336 232 C 384.52 232 424 192.52 424 144 C 424 95.48 384.52 56 336 56 C 287.48 56 248 95.48 248 144 C 248 192.52 287.48 232 336 232 Z  M 336 72 C 375.704 72 408 104.304 408 144 C 408 183.696 375.704 216 336 216 C 296.296 216 264 183.696 264 144 C 264 104.304 296.296 72 336 72 Z " fill="rgb(57,180,189)"/><path d=" M 464 232 L 440.328 232 L 453.168 219.16 L 442.984 198.32 C 445.728 192.904 448.08 187.2 450.008 181.272 L 472 173.712 L 472 114.288 L 450.008 106.736 C 448.08 100.808 445.728 95.104 442.984 89.688 L 453.168 68.848 L 411.152 26.832 L 390.304 37.024 C 384.88 34.28 379.176 31.928 373.264 30.008 L 365.712 8 L 306.288 8 L 298.736 30 C 292.824 31.92 287.12 34.272 281.696 37.016 L 260.848 26.824 L 247.664 40 L 8 40 L 8 504 L 392 504 L 392 312 L 464 312 C 486.056 312 504 294.056 504 272 C 504 249.944 486.056 232 464 232 L 464 232 Z  M 344 328 C 344 345.648 329.648 360 312 360 C 294.352 360 280 345.648 280 328 C 280 322.288 281.552 316.848 284.368 312 L 339.632 312 C 342.456 316.848 344 322.288 344 328 Z  M 200 296 L 200 280 L 424 280 L 424 296 L 200 296 Z  M 260.84 261.176 L 281.688 250.984 C 287.112 253.728 292.816 256.08 298.728 258 L 300.792 264 L 200 264 L 200 248 L 247.664 248 L 260.84 261.176 Z  M 184 291.056 L 145.888 272 L 184 252.944 L 184 291.056 Z  M 424 248.328 L 424 264 L 371.208 264 L 373.272 258 C 379.184 256.08 384.888 253.728 390.312 250.984 L 411.16 261.176 L 424 248.328 Z  M 264.08 46.216 L 282.064 55.008 L 285.712 52.992 C 292.376 49.304 299.6 46.328 307.192 44.136 L 311.192 42.984 L 317.712 24 L 354.288 24 L 360.808 42.984 L 364.808 44.136 C 372.392 46.32 379.624 49.304 386.288 52.992 L 389.936 55.008 L 407.92 46.216 L 433.776 72.08 L 424.984 90.072 L 427.008 93.72 C 430.68 100.352 433.664 107.576 435.856 115.2 L 437.016 119.2 L 456 125.712 L 456 162.288 L 437.024 168.808 L 435.864 172.808 C 433.672 180.432 430.688 187.656 427.016 194.288 L 424.992 197.936 L 433.784 215.928 L 407.928 241.792 L 389.944 233 L 386.296 235.016 C 379.632 238.704 372.408 241.68 364.816 243.872 L 360.816 245.024 L 354.296 264 L 317.712 264 L 311.192 245.016 L 307.192 243.864 C 299.608 241.68 292.376 238.696 285.712 235.008 L 282.064 232.992 L 264.08 241.784 L 238.216 215.92 L 247.016 197.928 L 244.992 194.28 C 241.32 187.648 238.336 180.424 236.144 172.8 L 234.984 168.8 L 216 162.288 L 216 125.712 L 234.976 119.192 L 236.136 115.192 C 238.328 107.568 241.312 100.344 244.984 93.712 L 247.008 90.064 L 238.208 72.072 L 264.08 46.216 Z  M 376 488 L 24 488 L 24 56 L 231.664 56 L 218.816 68.84 L 229.008 89.688 C 226.264 95.096 223.912 100.808 221.984 106.728 L 200 114.288 L 200 173.712 L 221.992 181.264 C 223.92 187.192 226.272 192.896 229.016 198.304 L 218.824 219.152 L 231.664 232 L 190.112 232 L 110.112 272 L 190.112 312 L 266.792 312 C 264.984 317.088 264 322.464 264 328 C 264 339.04 267.784 349.184 274.064 357.304 L 225.456 409.96 C 222.552 408.704 219.36 408 216 408 C 210.808 408 206.032 409.696 202.104 412.504 L 159.04 382.36 C 159.6 380.32 160 378.216 160 376 C 160 362.768 149.232 352 136 352 C 122.768 352 112 362.768 112 376 C 112 379.696 112.904 383.152 114.4 386.28 L 74.28 426.408 C 71.152 424.904 67.696 424 64 424 C 50.768 424 40 434.768 40 448 C 40 461.232 50.768 472 64 472 C 77.232 472 88 461.232 88 448 C 88 444.304 87.096 440.848 85.592 437.72 L 125.712 397.6 C 128.848 399.088 132.304 400 136 400 C 141.192 400 145.968 398.304 149.896 395.496 L 192.96 425.64 C 192.4 427.68 192 429.784 192 432 C 192 445.232 202.768 456 216 456 C 229.232 456 240 445.232 240 432 C 240 427.968 238.904 424.224 237.144 420.88 L 285.8 368.168 C 293.344 373.104 302.336 376 312 376 C 338.472 376 360 354.472 360 328 C 360 322.464 359.016 317.088 357.216 312 L 376 312 L 376 488 Z  M 224 432 C 224 436.408 220.416 440 216 440 C 211.584 440 208 436.408 208 432 C 208 427.592 211.584 424 216 424 C 220.416 424 224 427.592 224 432 Z  M 128 376 C 128 371.592 131.584 368 136 368 C 140.416 368 144 371.592 144 376 C 144 380.408 140.416 384 136 384 C 131.584 384 128 380.408 128 376 Z  M 72 448 C 72 452.408 68.416 456 64 456 C 59.584 456 56 452.408 56 448 C 56 443.592 59.584 440 64 440 C 68.416 440 72 443.592 72 448 Z  M 464 296 L 440 296 L 440 278 L 440 260 L 440 248 L 464 248 C 477.232 248 488 258.768 488 272 C 488 285.232 477.232 296 464 296 Z " fill="rgb(0,0,0)"/><path d=" M 184 72 L 136 72 L 136 88 L 104 88 L 104 136 L 88 136 L 88 120 L 40 120 L 40 216 L 184 216 L 184 72 Z  M 72 200 L 56 200 L 56 136 L 72 136 L 72 200 Z  M 88 152 L 104 152 L 104 200 L 88 200 L 88 152 Z  M 120 200 L 120 104 L 136 104 L 136 200 L 120 200 Z  M 168 200 L 152 200 L 152 88 L 168 88 L 168 200 Z " fill="rgb(57,180,189)"/><path d=" M 40 232 L 104 232 L 104 347 L 40 347 L 40 232 Z " fill="rgb(216,31,63)"/><path d=" M 344 456 L 360 456 L 360 472 L 344 472 L 344 456 Z " fill="rgb(0,0,0)"/><path d=" M 344 424 L 360 424 L 360 440 L 344 440 L 344 424 Z " fill="rgb(0,0,0)"/><path d=" M 344 392 L 360 392 L 360 408 L 344 408 L 344 392 Z " fill="rgb(0,0,0)"/><path d=" M 312 456 L 328 456 L 328 472 L 312 472 L 312 456 Z " fill="rgb(0,0,0)"/><path d=" M 280 456 L 296 456 L 296 472 L 280 472 L 280 456 Z " fill="rgb(0,0,0)"/></g></svg>