<?xml version="1.0" encoding="UTF-8" standalone="no"?><!-- Generator: Gravit.io --><svg xmlns="http://www.w3.org/2000/svg" xmlns:xlink="http://www.w3.org/1999/xlink" style="isolation:isolate" viewBox="0 0 512 512" width="512pt" height="512pt"><defs><clipPath id="_clipPath_eWQiI6udWnbBND0hy2QtxANNowwyUxDr"><rect width="512" height="512"/></clipPath></defs><g clip-path="url(#_clipPath_eWQiI6udWnbBND0hy2QtxANNowwyUxDr)"><path d=" M 320 312 L 320 336 L 272 336 C 272 300.64 243.36 272 208 272 C 172.64 272 144 300.64 144 336 L 96 336 L 96 312 L 116.48 306.96 C 118.16 301.68 120.32 296.72 122.8 291.92 L 111.84 273.76 L 145.76 239.84 L 163.92 250.8 C 168.72 248.32 173.68 246.16 178.96 244.48 L 184 224 L 232 224 L 237.04 244.48 C 242.32 246.16 247.28 248.32 252.08 250.8 L 270.24 239.84 L 304.16 273.76 L 293.2 291.92 C 295.68 296.72 297.84 301.68 299.52 306.96 L 320 312 Z " fill="rgb(216,31,63)"/><circle vector-effect="non-scaling-stroke" cx="376" cy="176" r="16" fill="rgb(216,31,63)"/><path d=" M 280 360 L 296 360 L 296 376 L 280 376 L 280 360 Z " fill="rgb(0,0,0)"/><path d=" M 248 360 L 264 360 L 264 376 L 248 376 L 248 360 Z " fill="rgb(0,0,0)"/><path d=" M 216 360 L 232 360 L 232 376 L 216 376 L 216 360 Z " fill="rgb(0,0,0)"/><path d=" M 376 8 C 335.688 8 299.72 26.776 276.24 56 L 48 56 C 25.944 56 8 73.944 8 96 L 8 368 C 8 390.056 25.944 408 48 408 L 181.76 408 L 169.76 456 L 136 456 C 122.768 456 112 466.768 112 480 L 112 504 L 400 504 L 400 480 C 400 466.768 389.232 456 376 456 L 342.24 456 L 330.24 408 L 464 408 C 486.056 408 504 390.056 504 368 L 504 144 L 504 136 C 504 65.424 446.576 8 376 8 Z  M 279.528 328 C 275.536 292.056 245 264 208 264 C 171 264 140.464 292.056 136.472 328 L 104 328 L 104 318.272 L 122.76 313.656 L 124.12 309.384 C 125.576 304.8 127.52 300.152 129.904 295.568 L 131.976 291.584 L 121.936 274.992 L 147 249.928 L 163.592 259.968 L 167.576 257.896 C 172.16 255.512 176.808 253.568 181.376 252.12 L 185.664 250.768 L 190.272 232 L 225.728 232 L 230.344 250.776 L 234.632 252.128 C 239.192 253.576 243.84 255.52 248.432 257.904 L 252.416 259.976 L 269.008 249.936 L 294.072 275 L 284.032 291.592 L 286.104 295.576 C 288.488 300.16 290.432 304.808 291.88 309.376 L 293.232 313.664 L 312 318.272 L 312 328 L 279.528 328 Z  M 263.36 328 L 152.64 328 C 156.544 300.912 179.848 280 208 280 C 236.152 280 259.456 300.912 263.36 328 Z  M 305.648 300.232 C 304.664 297.576 303.552 294.92 302.32 292.272 L 314.256 272.552 L 271.44 229.736 L 251.72 241.672 C 249.072 240.44 246.416 239.328 243.76 238.344 L 238.272 216 L 177.728 216 L 172.232 238.352 C 169.576 239.336 166.92 240.448 164.272 241.68 L 144.552 229.744 L 101.736 272.56 L 113.672 292.28 C 112.44 294.92 111.328 297.584 110.344 300.24 L 88 305.728 L 88 328 L 56 328 L 56 104 L 252.216 104 C 249.56 114.248 248 124.936 248 136 L 248 144 L 264.408 144 C 268.536 202.024 316.944 248 376 248 C 407.328 248 435.656 235.032 456 214.232 L 456 328 L 328 328 L 328 305.728 L 305.648 300.232 Z  M 275.272 87.08 L 289.216 95.128 C 284.424 105.256 281.304 116.32 280.336 128 L 264.288 128 C 265.312 113.416 269.16 99.6 275.272 87.08 Z  M 376 232 C 325.76 232 284.496 193.2 280.408 144 L 296 144 L 296 136 C 296 91.888 331.888 56 376 56 C 420.112 56 456 91.888 456 136 L 456 144 L 471.592 144 C 467.504 193.2 426.24 232 376 232 Z  M 384 40.384 L 384 24.384 C 398.568 25.424 412.368 29.232 424.88 35.336 L 416.856 49.232 C 406.728 44.448 395.672 41.352 384 40.384 Z  M 368 40.384 C 356.328 41.352 345.272 44.448 335.144 49.232 L 327.12 35.344 C 339.632 29.24 353.424 25.432 368 24.392 L 368 40.384 Z  M 471.672 128 C 470.704 116.32 467.576 105.256 462.792 95.128 L 476.736 87.08 C 482.84 99.6 486.688 113.416 487.72 128 L 471.672 128 Z  M 468.616 73.288 L 454.744 81.296 C 448.216 71.928 440.072 63.792 430.704 57.264 L 438.728 43.368 C 450.488 51.36 460.624 61.528 468.616 73.288 Z  M 313.28 43.368 L 321.304 57.264 C 311.936 63.792 303.792 71.928 297.264 81.296 L 283.392 73.288 C 291.376 61.528 301.512 51.36 313.28 43.368 Z  M 384 480 L 384 488 L 128 488 L 128 480 C 128 475.584 131.584 472 136 472 L 376 472 C 380.416 472 384 475.584 384 480 Z  M 325.76 456 L 186.24 456 L 198.24 408 L 313.76 408 L 325.76 456 Z  M 488 368 C 488 381.232 477.232 392 464 392 L 48 392 C 34.768 392 24 381.232 24 368 L 24 96 C 24 82.768 34.768 72 48 72 L 265.32 72 C 262.344 77.128 259.68 82.456 257.424 88 L 56 88 C 47.176 88 40 95.176 40 104 L 40 328 C 40 336.824 47.176 344 56 344 L 456 344 C 464.824 344 472 336.824 472 328 L 472 193.392 C 480.792 178.744 486.312 161.968 487.592 144 L 488 144 L 488 368 Z " fill="rgb(0,0,0)"/><path d=" M 384 153.472 L 384 72 L 368 72 L 368 153.472 C 358.712 156.784 352 165.584 352 176 C 352 186.416 358.712 195.216 368 198.528 L 368 216 L 384 216 L 384 198.528 C 393.288 195.216 400 186.416 400 176 C 400 165.584 393.288 156.784 384 153.472 Z  M 376 184 C 371.584 184 368 180.416 368 176 C 368 171.584 371.584 168 376 168 C 380.416 168 384 171.584 384 176 C 384 180.416 380.416 184 376 184 Z " fill="rgb(0,0,0)"/><path d=" M 96 152 C 82.768 152 72 162.768 72 176 C 72 189.232 82.768 200 96 200 C 109.232 200 120 189.232 120 176 C 120 162.768 109.232 152 96 152 Z  M 96 184 C 91.584 184 88 180.416 88 176 C 88 171.584 91.584 168 96 168 C 100.416 168 104 171.584 104 176 C 104 180.416 100.416 184 96 184 Z " fill="rgb(57,180,189)"/><path d=" M 160 152 C 146.768 152 136 162.768 136 176 C 136 189.232 146.768 200 160 200 C 173.232 200 184 189.232 184 176 C 184 162.768 173.232 152 160 152 Z  M 160 184 C 155.584 184 152 180.416 152 176 C 152 171.584 155.584 168 160 168 C 164.416 168 168 171.584 168 176 C 168 180.416 164.416 184 160 184 Z " fill="rgb(57,180,189)"/><path d=" M 224 152 C 210.768 152 200 162.768 200 176 C 200 189.232 210.768 200 224 200 C 237.232 200 248 189.232 248 176 C 248 162.768 237.232 152 224 152 Z  M 224 184 C 219.584 184 216 180.416 216 176 C 216 171.584 219.584 168 224 168 C 228.416 168 232 171.584 232 176 C 232 180.416 228.416 184 224 184 Z " fill="rgb(57,180,189)"/><path d=" M 424 296 L 440 296 L 440 312 L 424 312 L 424 296 Z " fill="rgb(0,0,0)"/><path d=" M 344 296 L 408 296 L 408 312 L 344 312 L 344 296 Z " fill="rgb(0,0,0)"/><path d=" M 344 264 L 440 264 L 440 280 L 344 280 L 344 264 Z " fill="rgb(0,0,0)"/><path d=" M 416.768 110.648 C 419.04 114.288 420.808 118.2 422.008 122.272 L 437.352 117.728 C 435.736 112.28 433.376 107.048 430.344 102.184 L 416.768 110.648 Z " fill="rgb(0,0,0)"/><path d=" M 403.432 78.168 L 396.576 92.624 C 400.704 94.584 404.528 97.128 407.952 100.184 L 418.608 88.248 C 414.048 84.168 408.936 80.784 403.432 78.168 Z " fill="rgb(0,0,0)"/><path d=" M 72 120 L 88 120 L 88 136 L 72 136 L 72 120 Z " fill="rgb(57,180,189)"/><path d=" M 104 120 L 120 120 L 120 136 L 104 136 L 104 120 Z " fill="rgb(57,180,189)"/><path d=" M 136 120 L 152 120 L 152 136 L 136 136 L 136 120 Z " fill="rgb(57,180,189)"/></g></svg>