<?xml version="1.0" encoding="UTF-8" standalone="no"?><!-- Generator: Gravit.io --><svg xmlns="http://www.w3.org/2000/svg" xmlns:xlink="http://www.w3.org/1999/xlink" style="isolation:isolate" viewBox="0 0 496 496" width="496pt" height="496pt"><defs><clipPath id="_clipPath_OnrO9EZ3YdV3CsLdwtcqXiyuQeSPWCSP"><rect width="496" height="496"/></clipPath></defs><g clip-path="url(#_clipPath_OnrO9EZ3YdV3CsLdwtcqXiyuQeSPWCSP)"><path d=" M 215.428 424 L 391.428 424 L 376.412 378.96 C 370.868 362.336 356.708 350.048 339.46 346.912 L 279.428 336 L 215.428 336 L 155.388 346.912 C 138.148 350.048 123.98 362.328 118.436 378.96 L 111.428 410.808 L 111.428 424 L 215.428 424 L 215.428 424 Z " fill="rgb(57,180,189)"/><g><path d=" M 215.428 312 L 215.428 336 L 247.428 368 L 279.428 336 L 279.428 312 L 215.428 312 Z " fill="rgb(255,255,255)"/></g><g opacity="0"><path d=" M 359.428 8 L 471.428 8 C 480.268 8 487.428 15.16 487.428 24 L 487.428 88 C 487.428 96.84 480.268 104 471.428 104 L 447.428 104 L 383.428 144 L 390.284 104 L 359.428 104 C 350.588 104 343.428 96.84 343.428 88 L 343.428 24 C 343.428 15.16 350.588 8 359.428 8 Z " fill="rgb(236,236,236)"/></g><path d=" M 356.764 424 L 391.428 424 L 376.412 378.96 C 370.868 362.336 356.708 350.048 339.46 346.912 L 279.428 336 L 336.988 367.976 C 346.044 373.008 352.108 382.112 353.252 392.416 L 356.764 424 L 356.764 424 Z " fill="rgb(38,124,130)"/><path d=" M 183.428 395.88 L 154.74 421.824 C 148.492 428.072 138.364 428.072 132.116 421.824 L 74.74 364.448 C 68.492 358.2 68.492 348.072 74.74 341.824 L 100.684 315.88 L 52.684 267.88 L 22.628 297.936 C 3.884 316.68 3.884 347.072 22.628 365.816 L 130.748 473.936 C 149.492 492.68 179.884 492.68 198.628 473.936 L 231.428 443.88 L 183.428 395.88 L 183.428 395.88 Z " fill="rgb(216,31,63)"/><path d=" M 384.004 376.432 C 377.532 357.032 361.02 342.712 340.892 339.048 L 287.428 329.32 L 287.428 325.176 C 296.732 319.776 304.828 312.552 311.276 304 L 327.428 304 C 340.66 304 351.428 293.232 351.428 280 L 351.428 184 C 351.428 126.656 304.772 80 247.428 80 C 190.084 80 143.428 126.656 143.428 184 L 143.428 240 C 143.428 255.424 154.396 268.328 168.94 271.336 C 173.428 294.328 187.796 313.784 207.428 325.176 L 207.428 329.32 L 153.956 339.048 C 133.836 342.712 117.316 357.032 110.852 376.432 L 107.652 386.04 L 80.404 358.792 C 77.284 355.672 77.284 350.592 80.404 347.472 L 112.004 315.88 L 52.692 256.568 L 16.98 292.28 C 6.404 302.856 0.58 316.92 0.58 331.88 C 0.58 346.84 6.404 360.896 16.98 371.472 L 125.1 479.592 C 135.676 490.168 149.74 496 164.7 496 C 179.66 496 193.716 490.168 204.044 479.832 L 243.012 444.128 L 230.86 432 L 402.524 432 L 384.004 376.432 L 384.004 376.432 Z  M 247.428 356.688 L 223.428 332.688 L 223.428 332.312 C 231.012 334.696 239.068 336 247.428 336 C 255.788 336 263.844 334.696 271.428 332.312 L 271.428 332.688 L 247.428 356.688 L 247.428 356.688 Z  M 327.428 288 L 320.7 288 C 323.02 282.712 324.78 277.136 325.916 271.336 C 329.34 270.624 332.492 269.264 335.428 267.552 L 335.428 280 C 335.428 284.416 331.836 288 327.428 288 Z  M 327.428 226.224 C 332.188 229 335.428 234.104 335.428 240 C 335.428 245.896 332.188 251 327.428 253.776 L 327.428 226.224 L 327.428 226.224 Z  M 159.428 240 C 159.428 234.104 162.668 229 167.428 226.224 L 167.428 253.776 C 162.668 251 159.428 245.896 159.428 240 Z  M 167.428 200 L 167.428 209.136 C 164.58 209.88 161.908 211 159.428 212.448 L 159.428 184 C 159.428 135.48 198.908 96 247.428 96 C 295.948 96 335.428 135.48 335.428 184 L 335.428 212.448 C 332.948 211 330.276 209.872 327.428 209.136 L 327.428 200 L 319.428 200 C 295.772 200 273.532 190.784 256.796 174.056 L 247.428 164.688 L 238.06 174.056 C 221.324 190.784 199.084 200 175.428 200 L 167.428 200 L 167.428 200 Z  M 183.428 256 L 183.428 215.696 C 207.452 213.888 229.852 203.976 247.428 187.264 C 265.004 203.976 287.404 213.896 311.428 215.696 L 311.428 256 C 311.428 267.664 308.244 278.576 302.772 288 L 247.428 288 L 247.428 304 L 289.62 304 C 278.34 313.928 263.596 320 247.428 320 C 212.14 320 183.428 291.288 183.428 256 Z  M 89.372 315.88 L 80.684 324.568 L 43.996 287.88 L 52.684 279.192 L 89.372 315.88 L 89.372 315.88 Z  M 164.684 480 C 154.004 480 143.956 475.832 136.396 468.28 L 28.276 360.168 C 20.724 352.616 16.564 342.568 16.564 331.888 C 16.564 321.2 20.724 311.152 28.276 303.6 L 32.676 299.2 L 69.364 335.888 L 69.076 336.176 C 59.724 345.536 59.724 360.76 69.076 370.12 L 126.444 427.488 C 130.98 432.016 137.004 434.52 143.42 434.52 C 149.836 434.52 155.86 432.024 160.1 427.768 L 160.7 427.232 L 197.556 464.088 L 192.964 468.296 C 185.412 475.832 175.364 480 164.684 480 Z  M 209.364 453.256 L 172.588 416.48 L 183.156 406.928 L 219.868 443.64 L 209.364 453.256 L 209.364 453.256 Z  M 214.86 416 L 183.7 384.84 L 149.076 416.16 C 146.06 419.192 140.788 419.192 137.764 416.16 L 120.292 398.688 L 126.02 381.488 C 130.636 367.632 142.436 357.4 156.812 354.776 L 212.732 344.616 L 247.428 379.312 L 282.116 344.624 L 338.028 354.784 C 352.404 357.408 364.204 367.632 368.82 381.496 L 380.332 416 L 214.86 416 L 214.86 416 Z " fill="rgb(0,0,0)"/><path d=" M 471.428 0 L 359.428 0 C 346.196 0 335.428 10.768 335.428 24 L 335.428 88 C 335.428 101.232 346.196 112 359.428 112 L 380.796 112 L 372.524 160.248 L 449.724 112 L 471.428 112 C 484.66 112 495.428 101.232 495.428 88 L 495.428 24 C 495.428 10.768 484.66 0 471.428 0 Z  M 479.428 88 C 479.428 92.408 475.836 96 471.428 96 L 445.132 96 L 394.324 127.752 L 399.772 96 L 359.428 96 C 355.02 96 351.428 92.408 351.428 88 L 351.428 24 C 351.428 19.592 355.02 16 359.428 16 L 471.428 16 C 475.836 16 479.428 19.592 479.428 24 L 479.428 88 L 479.428 88 Z " fill="rgb(216,31,63)"/><rect x="367.428" y="32" width="96" height="16" transform="matrix(1,0,0,1,0,0)" fill="rgb(216,31,63)"/><rect x="367.428" y="64" width="64" height="16" transform="matrix(1,0,0,1,0,0)" fill="rgb(216,31,63)"/><rect x="447.428" y="64" width="16" height="16" transform="matrix(1,0,0,1,0,0)" fill="rgb(216,31,63)"/><path d=" M 75.548 198.856 L 67.316 185.136 L 45.636 198.144 C 68.308 105.88 151.276 40 247.428 40 C 268.444 40 289.18 43.12 309.06 49.28 L 313.796 34 C 292.38 27.36 270.052 24 247.428 24 C 142.9 24 52.86 96.304 29.452 197.16 L 14.292 171.888 L 0.572 180.12 L 28.692 226.976 L 75.548 198.856 L 75.548 198.856 Z " fill="rgb(0,0,0)"/><path d=" M 416.572 195.88 L 430.292 204.112 L 444.292 180.776 C 451.66 202.336 455.428 224.888 455.428 248 C 455.428 295.576 438.948 342.088 409.036 378.96 L 421.46 389.04 C 453.684 349.328 471.428 299.232 471.428 248 C 471.428 223.528 467.484 199.632 459.796 176.752 L 483.308 190.856 L 491.54 177.136 L 444.684 149.016 L 416.572 195.88 L 416.572 195.88 Z " fill="rgb(57,180,189)"/></g></svg>