<?xml version="1.0" encoding="UTF-8" standalone="no"?><!-- Generator: Gravit.io --><svg xmlns="http://www.w3.org/2000/svg" xmlns:xlink="http://www.w3.org/1999/xlink" style="isolation:isolate" viewBox="0 0 512 512" width="512pt" height="512pt"><defs><clipPath id="_clipPath_ibeofN68i8yA2QXhw6kvLsDI5fA3SGYz"><rect width="512" height="512"/></clipPath></defs><g clip-path="url(#_clipPath_ibeofN68i8yA2QXhw6kvLsDI5fA3SGYz)"><path d=" M 276 238 L 299 218.856 L 336.52 272.728 L 328.496 290 L 276 238 Z " fill="rgb(216,31,63)" vector-effect="non-scaling-stroke" stroke-width="1" stroke="rgb(0,0,0)" stroke-linejoin="miter" stroke-linecap="square" stroke-miterlimit="3"/><path d=" M 374 166.976 L 426.928 124 L 440.848 141 L 463 254.008 L 449.88 264 L 374 166.976 Z " fill="rgb(216,31,63)" vector-effect="non-scaling-stroke" stroke-width="1" stroke="rgb(0,0,0)" stroke-linejoin="miter" stroke-linecap="square" stroke-miterlimit="3"/><path d=" M 504 40 C 504 28.352 497.704 19.336 486.28 14.608 C 463.368 5.128 421.792 14.896 402.344 34.344 C 400.472 36.216 396.648 40.536 391.488 46.544 C 347.416 21.048 301.872 8 256 8 C 212.4 8 169.512 19.48 131.992 41.2 L 140.008 55.04 C 175.104 34.736 215.208 24 256 24 C 298.144 24 340.128 35.856 380.936 58.96 C 377.632 62.88 374.064 67.136 370.328 71.6 L 251.224 63.664 L 250.992 64.128 C 147.44 66.8 64 151.816 64 256 C 64 361.864 150.136 448 256 448 C 356.016 448 438.368 371.12 447.176 273.36 L 473.04 260.424 L 447.84 134.432 L 447.584 133.472 C 447.424 133 447.16 132.616 446.976 132.16 C 447.784 131.232 448.752 130.104 449.88 128.776 C 474.792 166.576 488 210.224 488 256 C 488 296.8 477.272 336.904 456.976 371.992 L 470.824 380.008 C 492.528 342.488 504 299.6 504 256 C 504 205.424 488.872 157.312 460.488 115.984 C 478.16 94.064 504 58.816 504 40 Z  M 413.656 45.656 C 419.152 40.152 427.432 35.528 436.536 32.24 C 444.848 42.496 441.288 51.456 440.848 52.424 C 438.872 56.376 440.472 61.184 444.424 63.16 C 445.568 63.728 446.792 64 447.992 64 C 450.928 64 453.752 62.384 455.16 59.576 C 455.52 58.856 462.472 44.32 453.072 27.96 C 463.36 26.28 473.256 26.52 480.16 29.384 C 487.112 32.264 488 36.568 488 40 C 488 54.592 457.792 94.96 436.888 119.36 C 435.08 118.216 433.168 117.288 431.12 116.736 C 424.12 114.848 416.712 116.752 410.88 121.856 L 356.736 166.976 L 363.752 175.392 L 307.872 218.856 L 297.024 203.664 L 270.848 229.84 L 216 195.568 L 216 192 L 291.792 192 L 294.192 189.064 C 331.24 143.736 403.872 55.44 413.656 45.656 Z  M 256 432 C 246.632 432 222.816 410.584 202.312 376 L 309.696 376 C 289.184 410.584 265.368 432 256 432 Z  M 193.592 360 C 180.12 333.056 169.736 300.168 168.344 264 L 287.704 264 L 330.568 300.744 L 343 275.88 C 340.04 307.4 330.384 336.032 318.4 360 L 193.592 360 Z  M 80.2 264 L 152.168 264 C 153.4 299.416 162.664 332.2 175.464 360 L 114.12 360 C 94.176 332.856 81.816 299.808 80.2 264 Z  M 237.552 91.064 L 312.448 136 L 202.312 136 C 214.12 116.08 226.936 100.632 237.552 91.064 Z  M 303.872 152 C 294.856 162.984 287.776 171.632 284.208 176 L 200 176 L 200 204.432 L 267.248 246.464 L 269.04 248 L 168.344 248 C 169.728 211.832 180.12 178.944 193.592 152 L 303.872 152 Z  M 339.184 214.776 C 341.744 226.896 343.192 237.776 343.696 248 L 328.688 248 L 317.176 231.888 L 339.184 214.776 Z  M 343.448 268.672 L 340.112 264 L 343.648 264 C 343.592 265.56 343.544 267.128 343.448 268.672 Z  M 326.688 272.728 L 325.424 275.256 L 283.76 239.544 L 294.976 228.336 L 326.688 272.728 Z  M 152.176 248 L 80.208 248 C 81.816 212.192 94.184 179.144 114.136 152 L 175.48 152 C 162.664 179.8 153.408 212.584 152.176 248 Z  M 359.824 264 L 431.792 264 C 430.184 299.808 417.816 332.856 397.864 360 L 336.52 360 C 349.336 332.2 358.592 299.416 359.824 264 Z  M 359.696 248 C 359.088 234.608 356.944 220.256 353.104 203.944 L 374 187.696 L 424.248 248 L 359.696 248 Z  M 260.776 80.336 L 357.664 86.792 C 347.216 99.368 336.152 112.76 325.784 125.344 L 258.464 84.952 L 260.776 80.336 Z  M 222.768 83.192 C 209.648 95.696 195.6 113.816 183.504 136 L 127.424 136 C 152.36 109.296 185.48 90.344 222.768 83.192 Z  M 127.416 376 L 183.496 376 C 195.6 398.184 209.64 416.304 222.76 428.808 C 185.48 421.656 152.36 402.704 127.416 376 Z  M 289.232 428.808 C 302.352 416.304 316.4 398.184 328.496 376 L 384.576 376 C 359.64 402.704 326.52 421.656 289.232 428.808 Z  M 454.96 251.576 L 450.096 254.008 L 379.272 169.016 L 421.272 134.016 C 423.224 132.304 425.136 131.68 426.928 132.176 C 429.152 132.784 431.128 134.984 432.264 138.112 L 454.96 251.576 Z " fill="rgb(0,0,0)"/><circle vector-effect="non-scaling-stroke" cx="400" cy="104" r="8" fill="rgb(0,0,0)"/><circle vector-effect="non-scaling-stroke" cx="424" cy="80" r="8" fill="rgb(0,0,0)"/><circle vector-effect="non-scaling-stroke" cx="376" cy="128" r="8" fill="rgb(0,0,0)"/><path d=" M 41.2 131.992 C 19.48 169.512 8 212.4 8 256 C 8 299.528 19.44 342.344 41.072 379.824 L 54.928 371.824 C 34.696 336.776 24 296.728 24 256 C 24 215.208 34.736 175.104 55.048 140.008 L 41.2 131.992 Z " fill="rgb(216,31,63)"/><path d=" M 256 488 C 215.216 488 175.104 477.272 140 456.976 L 131.992 470.816 C 169.528 492.528 212.408 504 256 504 C 299.52 504 342.336 492.56 379.824 470.928 L 371.824 457.072 C 336.768 477.304 296.72 488 256 488 Z " fill="rgb(216,31,63)"/><path d=" M 88 392 C 70.352 392 56 406.352 56 424 C 56 441.648 70.352 456 88 456 C 105.648 456 120 441.648 120 424 C 120 406.352 105.648 392 88 392 Z  M 88 440 C 79.176 440 72 432.824 72 424 C 72 415.176 79.176 408 88 408 C 96.824 408 104 415.176 104 424 C 104 432.824 96.824 440 88 440 Z " fill="rgb(0,0,0)"/><path d=" M 424 392 C 406.352 392 392 406.352 392 424 C 392 441.648 406.352 456 424 456 C 441.648 456 456 441.648 456 424 C 456 406.352 441.648 392 424 392 Z  M 424 440 C 415.176 440 408 432.824 408 424 C 408 415.176 415.176 408 424 408 C 432.824 408 440 415.176 440 424 C 440 432.824 432.824 440 424 440 Z " fill="rgb(0,0,0)"/><path d=" M 88 120 C 105.648 120 120 105.648 120 88 C 120 70.352 105.648 56 88 56 C 70.352 56 56 70.352 56 88 C 56 105.648 70.352 120 88 120 Z  M 88 72 C 96.824 72 104 79.176 104 88 C 104 96.824 96.824 104 88 104 C 79.176 104 72 96.824 72 88 C 72 79.176 79.176 72 88 72 Z " fill="rgb(0,0,0)"/><circle vector-effect="non-scaling-stroke" cx="88" cy="88" r="20" fill="rgb(57,180,189)"/><circle vector-effect="non-scaling-stroke" cx="88" cy="424" r="20" fill="rgb(57,180,189)"/><circle vector-effect="non-scaling-stroke" cx="424" cy="424" r="20" fill="rgb(57,180,189)"/></g></svg>